<svg xmlns="http://www.w3.org/2000/svg" xmlns:xlink="http://www.w3.org/1999/xlink" width="97" height="88" viewBox="0 0 97 88">
  <defs>
    <style>
      .cls-1 {
        fill: url(#linear-gradient);
      }

      .cls-2 {
        fill: url(#linear-gradient-2);
      }

      .cls-3, .cls-4 {
        fill: #fff;
      }

      .cls-3 {
        stroke: #000;
      }

      .cls-4 {
        font-size: 18px;
        font-family: ArialMT, Arial;
      }

      .cls-5, .cls-6 {
        stroke: none;
      }
    </style>
    <linearGradient id="linear-gradient" x1="0.172" y1="0.887" x2="0.829" y2="0.14" gradientUnits="objectBoundingBox">
      <stop offset="0" stop-color="#1536bb"/>
      <stop offset="1" stop-color="#7433b5"/>
    </linearGradient>
    <linearGradient id="linear-gradient-2" x1="0.172" y1="0.887" x2="0.829" y2="0.14" gradientUnits="objectBoundingBox">
      <stop offset="0" stop-color="#1536bb"/>
      <stop offset="1"/>
    </linearGradient>
  </defs>
  <g id="Group_4" data-name="Group 4" transform="translate(-1322 -380)">
    <g id="Group_1" data-name="Group 1" transform="translate(1322 380)">
      <g id="Subtraction_2" data-name="Subtraction 2" class="cls-1">
        <path class="cls-5" d="M 45 87.5 C 41.9798698425293 87.5 38.96161270141602 87.20250701904297 36.02907180786133 86.61579895019531 C 33.17149353027344 86.04403686523438 30.36081123352051 85.19095611572266 27.67508316040039 84.08023834228516 C 25.0379524230957 82.98958587646484 22.4946346282959 81.63978576660156 20.11576461791992 80.06835174560547 C 17.75961112976074 78.51200103759766 15.54375267028809 76.72442626953125 13.52974128723145 74.75525665283203 C 11.51615333557129 72.78635406494141 9.688223838806152 70.62009429931641 8.09674072265625 68.31668090820313 C 6.490058898925781 65.99136352539063 5.110117435455322 63.50557708740234 3.99524712562561 60.92837524414063 C 2.859882354736328 58.30365753173828 1.98800003528595 55.55718994140625 1.403788208961487 52.7652587890625 C 0.8040705919265747 49.90016555786133 0.5 46.95116424560547 0.5 44.00012969970703 C 0.5 41.04910659790039 0.8040705919265747 38.10010528564453 1.403776526451111 35.23502349853516 C 1.987988233566284 32.44306945800781 2.859882354736328 29.69658851623535 3.99524712562561 27.07183456420898 C 5.110129356384277 24.4946346282959 6.490070819854736 22.00883483886719 8.09674072265625 19.68349456787109 C 9.688270568847656 17.38002395629883 11.51620006561279 15.21375274658203 13.52975273132324 13.24485874176025 C 15.54352951049805 11.27589416503906 17.7593879699707 9.488293647766113 20.11576461791992 7.931741237640381 C 22.49444770812988 6.360376358032227 25.03777694702148 5.010564804077148 27.67509460449219 3.919800043106079 C 30.36092948913574 2.809046983718872 33.17161178588867 1.955952882766724 36.02908325195313 1.384199976921082 C 38.96155166625977 0.7974823713302612 41.97981262207031 0.5 45 0.5 C 48.02031707763672 0.5 51.03857803344727 0.7974823713302612 53.97092819213867 1.384199976921082 C 56.82852935791016 1.955952882766724 59.63921356201172 2.809058904647827 62.32489395141602 3.919800043106079 C 64.96218872070313 5.010482311248779 67.50555419921875 6.360294342041016 69.88435363769531 7.931729316711426 C 72.24109649658203 9.488564491271973 74.45695495605469 11.27616500854492 76.47037506103516 13.24487018585205 C 78.48394012451172 15.21380043029785 80.31187438964844 17.38006973266602 81.90337371826172 19.68349456787109 C 83.51039886474609 22.00936508178711 84.89034271240234 24.49515342712402 86.0048828125 27.07183456420898 C 87.14049530029297 29.69725799560547 88.01237487792969 32.44374084472656 88.59632873535156 35.23497772216797 C 89.19596099853516 38.10022354125977 89.5 41.04923629760742 89.5 44.00012969970703 C 89.5 46.95103454589844 89.19596099853516 49.90004730224609 88.59632873535156 52.7652473449707 C 88.01237487792969 55.5565185546875 87.14049530029297 58.3029899597168 86.0048828125 60.92839813232422 C 84.89034271240234 63.50508117675781 83.51039886474609 65.99086761474609 81.90338897705078 68.31668090820313 C 80.31187438964844 70.62010955810547 78.48394012451172 72.78636169433594 76.47037506103516 74.75527954101563 C 74.45696258544922 76.72393035888672 72.24110412597656 78.51150512695313 69.88436126708984 80.06835174560547 C 67.50540161132813 81.63986206054688 64.96202087402344 82.98964691162109 62.32490539550781 84.08023834228516 C 59.63907241821289 85.19100189208984 56.82838821411133 86.04408264160156 53.97092819213867 86.61579895019531 C 51.03851699829102 87.2025146484375 48.02025985717773 87.5 45 87.5 Z M 45 17.37516403198242 C 29.99160003662109 17.37516403198242 17.78137588500977 29.31907081604004 17.78137588500977 44.00012969970703 C 17.78137588500977 58.68118667602539 29.99160003662109 70.62510681152344 45 70.62510681152344 C 60.00847244262695 70.62510681152344 72.21875 58.68118667602539 72.21875 44.00012969970703 C 72.21875 29.31907081604004 60.00847244262695 17.37516403198242 45 17.37516403198242 Z"/>
        <path class="cls-6" d="M 45 87 C 47.98741149902344 87 50.97266387939453 86.70577239990234 53.87283706665039 86.12551116943359 C 56.69852447509766 85.56015014648438 59.47792434692383 84.71657562255859 62.13382339477539 83.61818695068359 C 64.74140167236328 82.53984069824219 67.25634002685547 81.20512390136719 69.6087646484375 79.65115356445313 C 71.9390869140625 78.11177825927734 74.13005065917969 76.34428405761719 76.12079620361328 74.39778900146484 C 78.11151123046875 72.45122528076172 79.91866302490234 70.30961608886719 81.49203491210938 68.03246307373047 C 83.08043670654297 65.73355102539063 84.44438934326172 63.276611328125 85.54595947265625 60.72990036010742 C 86.66823577880859 58.13532638549805 87.52987670898438 55.42118835449219 88.10694122314453 52.66282653808594 C 88.69953918457031 49.83123779296875 89 46.91668701171875 89 44.00013732910156 C 89 41.08359909057617 88.69953918457031 38.16903686523438 88.10692596435547 35.33736419677734 C 87.52987670898438 32.57904815673828 86.66823577880859 29.86491203308105 85.54597473144531 27.27033805847168 C 84.44437408447266 24.72360038757324 83.08043670654297 22.26663780212402 81.49202728271484 19.96772575378418 C 79.91868591308594 17.69059944152832 78.11154937744141 15.54898738861084 76.12081146240234 13.60236263275146 C 74.13006591796875 11.65582466125488 71.9390869140625 9.888312339782715 69.6087646484375 8.34892463684082 C 67.25657653808594 6.795074939727783 64.74165344238281 5.460362434387207 62.1338005065918 4.381849765777588 C 59.47806167602539 3.283487558364868 56.69866180419922 2.439887523651123 53.87282562255859 1.874487519264221 C 50.97272491455078 1.294224977493286 47.98747634887695 1 45 1 C 42.01263809204102 1 39.02738571166992 1.294224977493286 36.12717437744141 1.874487519264221 C 33.30146408081055 2.439887523651123 30.52206230163574 3.283487558364868 27.86618804931641 4.381849765777588 C 25.2583122253418 5.460437297821045 22.7434253692627 6.795149803161621 20.39134979248047 8.348937034606934 C 18.06143760681152 9.888012886047363 15.87047481536865 11.65552520751953 13.8793249130249 13.60235023498535 C 11.88857460021973 15.5489501953125 10.08143711090088 17.6905632019043 8.508087158203125 19.96772575378418 C 6.920000076293945 22.26616287231445 5.556062698364258 24.72312545776367 4.454150199890137 27.27034950256348 C 3.332112550735474 29.86429977416992 2.470487594604492 32.57844924926758 1.893175005912781 35.33746337890625 C 1.300512552261353 38.16892623901367 1 41.08347320556641 1 44.00013732910156 C 1 46.91681289672852 1.300512552261353 49.83134841918945 1.893187522888184 52.66284942626953 C 2.470487594604492 55.42181396484375 3.332124948501587 58.13594818115234 4.454137325286865 60.72986221313477 C 5.556037425994873 63.27705001831055 6.919974803924561 65.73400115966797 8.508099555969238 68.03247833251953 C 10.08141231536865 70.30958557128906 11.8885498046875 72.45118713378906 13.87928771972656 74.39775085449219 C 15.87069988250732 76.34480285644531 18.0616626739502 78.11228942871094 20.39134979248047 79.65115356445313 C 22.74362564086914 81.20500946044922 25.25851249694824 82.53972625732422 27.86616325378418 83.61820220947266 C 30.52196311950684 84.71652221679688 33.30136108398438 85.56011199951172 36.12716293334961 86.12551116943359 C 39.02745056152344 86.70577239990234 42.01269912719727 87 45 87 M 45 16.87516212463379 C 60.28417587280273 16.87516212463379 72.71875 29.04337501525879 72.71875 44.00013732910156 C 72.71875 58.95690155029297 60.28417587280273 71.12511444091797 45 71.12511444091797 C 29.71590042114258 71.12511444091797 17.28137588500977 58.95690155029297 17.28137588500977 44.00013732910156 C 17.28137588500977 29.04337501525879 29.71590042114258 16.87516212463379 45 16.87516212463379 M 45 88 C 41.94693756103516 88 38.89563751220703 87.69922637939453 35.93097686767578 87.10607147216797 C 33.04182434082031 86.52799987792969 30.19977569580078 85.66542816162109 27.48399925231934 84.54228973388672 C 24.81761169433594 83.43952178955078 22.24580001831055 82.07465362548828 19.84017562866211 80.48553466796875 C 17.45714950561523 78.91145324707031 15.21657466888428 77.10379791259766 13.1801872253418 75.11277770996094 C 11.14379978179932 73.12155914306641 9.295062065124512 70.9306640625 7.685375213623047 68.60091400146484 C 6.060037612915039 66.24857330322266 4.664137363433838 63.73397445678711 3.536337614059448 61.12689971923828 C 2.387700080871582 58.47145080566406 1.505499958992004 55.69262313842773 0.9143875241279602 52.8676643371582 C 0.3076249957084656 49.96888732910156 0 46.98541259765625 0 44.00013732910156 C 0 41.01486206054688 0.3076249957084656 38.03138732910156 0.9143875241279602 35.13258743286133 C 1.505499958992004 32.30759811401367 2.387700080871582 29.52878761291504 3.536337614059448 26.87333679199219 C 4.664137363433838 24.26626205444336 6.060037612915039 21.75162506103516 7.685375213623047 19.3992748260498 C 9.295062065124512 17.06951332092285 11.14379978179932 14.87858772277832 13.1801872253418 12.88736248016357 C 15.21657466888428 10.89630031585693 17.457275390625 9.088624954223633 19.84017562866211 7.51455020904541 C 22.24580001831055 5.925387382507324 24.8177375793457 4.560500144958496 27.48399925231934 3.457762479782104 C 30.19977569580078 2.334625005722046 33.04169845581055 1.472037553787231 35.93097686767578 0.8939250111579895 C 38.89563751220703 0.3007625043392181 41.94693756103516 0 45 0 C 48.05318832397461 0 51.10447311401367 0.3007625043392181 54.06902313232422 0.8939250111579895 C 56.95842361450195 1.472037553787231 59.80035018920898 2.334625005722046 62.51598739624023 3.457762479782104 C 65.18238830566406 4.560487270355225 67.75432586669922 5.925387382507324 70.15995025634766 7.51455020904541 C 72.5428466796875 9.088662147521973 74.78368377685547 10.89633750915527 76.81993865966797 12.88736248016357 C 78.8563232421875 14.87862491607666 80.70506286621094 17.06954956054688 82.31475067138672 19.3992748260498 C 83.94008636474609 21.75164985656738 85.33611297607422 24.26630020141602 86.46379089355469 26.87333679199219 C 87.6124267578125 29.52886199951172 88.4947509765625 32.30767440795898 89.08573913574219 35.13258743286133 C 89.69239044189453 38.03138732910156 90 41.01486206054688 90 44.00013732910156 C 90 46.98541259765625 89.69239044189453 49.96888732910156 89.08573913574219 52.8676643371582 C 88.4947509765625 55.69256210327148 87.6124267578125 58.47137451171875 86.46379089355469 61.12689971923828 C 85.33611297607422 63.73393630981445 83.94008636474609 66.24856567382813 82.31475067138672 68.60091400146484 C 80.70506286621094 70.93062591552734 78.8563232421875 73.12155151367188 76.81993865966797 75.11277770996094 C 74.78368377685547 77.103759765625 72.5428466796875 78.91142272949219 70.15995025634766 80.48553466796875 C 67.75432586669922 82.07465362548828 65.18251037597656 83.43955230712891 62.51598739624023 84.54228973388672 C 59.80022430419922 85.66542816162109 56.95830154418945 86.52799987792969 54.06902313232422 87.10607147216797 C 51.10447311401367 87.69922637939453 48.05318832397461 88 45 88 Z M 45 17.87516212463379 C 30.26733779907227 17.87516212463379 18.28137588500977 29.59477424621582 18.28137588500977 44.00013732910156 C 18.28137588500977 58.40548706054688 30.26733779907227 70.12511444091797 45 70.12511444091797 C 59.73266220092773 70.12511444091797 71.71875 58.40548706054688 71.71875 44.00013732910156 C 71.71875 29.59477424621582 59.73266220092773 17.87516212463379 45 17.87516212463379 Z"/>
      </g>
      <path id="Subtraction_1" data-name="Subtraction 1" class="cls-2" d="M29,59a28.542,28.542,0,0,1-15.91-4.832,29.292,29.292,0,0,1-4.25-3.462A21.5,21.5,0,0,0,23.748,56.7a21.9,21.9,0,0,0,0-43.789A21.819,21.819,0,0,0,2.055,34.8,22.04,22.04,0,0,0,7.1,48.842,29.494,29.494,0,0,1,1.892,40,29.832,29.832,0,0,1,0,29.5a30.205,30.205,0,0,1,.589-5.945A29.59,29.59,0,0,1,8.494,8.64a29.312,29.312,0,0,1,4.292-3.6,28.842,28.842,0,0,1,4.926-2.72,28.592,28.592,0,0,1,22.576,0,28.857,28.857,0,0,1,4.926,2.72,29.414,29.414,0,0,1,7.833,7.968,29.6,29.6,0,0,1,4.364,10.548,30.291,30.291,0,0,1,0,11.891,29.594,29.594,0,0,1-7.9,14.914,29.315,29.315,0,0,1-4.292,3.6,28.855,28.855,0,0,1-4.926,2.72A28.487,28.487,0,0,1,29,59Z" transform="translate(17 12)"/>
      <path id="Path_4" data-name="Path 4" class="cls-3" d="M0,0,11.809,28.917l8.31-13.887,7.435,13.887L41.259,0H32.511L26.242,11.763,20.119,4.084l-5.394,7.678L9.914,0Z" transform="matrix(1, -0.017, 0.017, 1, 33.503, 34.375)"/>
      <text id="i_k_i" data-name="i k i" class="cls-4" transform="translate(70 58)"><tspan x="0" y="0">i k i</tspan></text>
    </g>
  </g>
</svg>
